<svg id="Back" width="23" height="21" viewBox="0 0 23 21" fill="none" xmlns="http://www.w3.org/2000/svg">
<path d="M9.47948 19.6697C9.62412 19.5498 9.74367 19.4025 9.83131 19.2364C9.91895 19.0702 9.97295 18.8884 9.99021 18.7013C10.0075 18.5142 9.98766 18.3256 9.9319 18.1462C9.87615 17.9668 9.78556 17.8002 9.6653 17.6558L4.48116 11.4282L21.4204 11.4295C21.7992 11.4295 22.1625 11.279 22.4303 11.0112C22.6982 10.7434 22.8487 10.3801 22.8487 10.0013C22.8488 9.6225 22.6983 9.2592 22.4305 8.99133C22.1627 8.72346 21.7994 8.57295 21.4206 8.57293L4.48136 8.5717L9.66642 2.34484C9.78647 2.20043 9.8769 2.03378 9.93254 1.85442C9.98819 1.67506 10.008 1.48649 9.99074 1.29948C9.97351 1.11248 9.91962 0.930697 9.83214 0.76452C9.74466 0.598343 9.6253 0.451024 9.48089 0.330973C9.33647 0.210923 9.16983 0.120494 8.99047 0.0648472C8.8111 0.00920008 8.62254 -0.010576 8.43553 0.00665183C8.24853 0.0238797 8.06675 0.0777727 7.90057 0.165253C7.73439 0.252733 7.58707 0.372089 7.46702 0.516503L0.325077 9.08557L0.196518 9.2998L0.0965263 9.48547C-0.0311802 9.81635 -0.0312069 10.1829 0.0964515 10.5138L0.196416 10.6995L0.324945 10.9137L7.46564 19.4839C7.58553 19.6285 7.73278 19.748 7.89895 19.8357C8.06512 19.9233 8.24694 19.9773 8.43401 19.9946C8.62108 20.0118 8.80971 19.992 8.98911 19.9363C9.16851 19.8805 9.33515 19.7899 9.47948 19.6697Z" fill="#878787"/>
</svg>
