<svg id="CheckboxFalse" width="15" height="15" viewBox="0 0 15 15" fill="none" xmlns="http://www.w3.org/2000/svg">
<path d="M13.125 14.9854H1.875C1.35742 14.9854 0.915527 14.8022 0.549316 14.436C0.183105 14.0698 0 13.6279 0 13.1104V1.86035C0 1.34277 0.183105 0.90332 0.549316 0.541992C0.915527 0.180664 1.35742 0 1.875 0H13.125C13.6426 0 14.0845 0.180664 14.4507 0.541992C14.8169 0.90332 15 1.34277 15 1.86035V13.1104C15 13.6279 14.8169 14.0698 14.4507 14.436C14.0845 14.8022 13.6426 14.9854 13.125 14.9854ZM13.125 2.79785C13.125 2.54395 13.0347 2.32422 12.854 2.13867C12.6733 1.95312 12.4512 1.86035 12.1875 1.86035H2.8125C2.54883 1.86035 2.32666 1.95312 2.146 2.13867C1.96533 2.32422 1.875 2.54395 1.875 2.79785V12.1729C1.875 12.4365 1.96533 12.6587 2.146 12.8394C2.32666 13.02 2.54883 13.1104 2.8125 13.1104H12.1875C12.4512 13.1104 12.6733 13.02 12.854 12.8394C13.0347 12.6587 13.125 12.4365 13.125 12.1729V2.79785ZM8.87695 7.48535L10.957 9.56543C11.1523 9.76074 11.25 9.99268 11.25 10.2612C11.25 10.5298 11.1548 10.7568 10.9644 10.9424C10.7739 11.1279 10.5444 11.2207 10.2759 11.2207C10.0073 11.2207 9.77539 11.1279 9.58008 10.9424L7.5 8.8623L5.41992 10.957C5.22461 11.1426 4.99512 11.2354 4.73145 11.2354C4.46777 11.2354 4.24072 11.1401 4.05029 10.9497C3.85986 10.7593 3.76465 10.5298 3.76465 10.2612C3.76465 9.99268 3.85742 9.76562 4.04297 9.58008L6.1377 7.48535L4.02832 5.39062C3.84277 5.19531 3.75 4.96338 3.75 4.69482C3.75 4.42627 3.84277 4.19922 4.02832 4.01367C4.21387 3.82812 4.44092 3.73535 4.70947 3.73535C4.97803 3.73535 5.20996 3.82812 5.40527 4.01367L7.5 6.12305L9.60938 4.01367C9.79492 3.82812 10.022 3.73535 10.2905 3.73535C10.5591 3.73535 10.7886 3.83057 10.979 4.021C11.1694 4.21143 11.2646 4.44092 11.2646 4.70947C11.2646 4.97803 11.167 5.20508 10.9717 5.39062L8.87695 7.48535Z" fill="#FF0202"/>
</svg>
