<svg id="CheckFalse" width="19" height="19" viewBox="0 0 19 19" xmlns="http://www.w3.org/2000/svg">
<path d="M16.625 19H2.375C1.7194 19 1.15967 18.7678 0.695801 18.3035C0.231934 17.8392 0 17.2789 0 16.6227V2.35875C0 1.70251 0.231934 1.14532 0.695801 0.687195C1.15967 0.229065 1.7194 0 2.375 0H16.625C16.959 0 17.2868 0.0681004 17.6084 0.204301L15.4375 2.35875H3.5625C3.24089 2.35875 2.96257 2.47638 2.72754 2.71163C2.49251 2.94689 2.375 3.22548 2.375 3.54741V15.434C2.375 15.7683 2.48942 16.05 2.71826 16.2791C2.9471 16.5081 3.22852 16.6227 3.5625 16.6227H15.4375C15.7591 16.6227 16.0374 16.5081 16.2725 16.2791C16.5075 16.05 16.625 15.7683 16.625 15.434V8.30205L19 5.92473V16.6227C19 17.2789 18.7681 17.8392 18.3042 18.3035C17.8403 18.7678 17.2806 19 16.625 19V19ZM10.3535 12.7038C10.1185 12.9391 9.8278 13.0505 9.48145 13.0381C9.12272 13.0505 8.82585 12.9329 8.59082 12.6852L5.10254 9.21212C4.86751 8.96448 4.75 8.67041 4.75 8.32991C4.75 7.98941 4.87061 7.70153 5.11182 7.46628C5.35303 7.23102 5.64062 7.11339 5.97461 7.11339C6.30859 7.11339 6.59928 7.23102 6.84668 7.46628L9.51855 10.1408L18.5732 1.02151C18.8577 1.43011 19 1.87586 19 2.35875V3.6217C18.901 4.00554 18.7773 4.26556 18.6289 4.40176L10.3535 12.7038Z" />
</svg>
