<?xml version="1.0" encoding="iso-8859-1"?>
<!-- Generator: Adobe Illustrator 16.0.0, SVG Export Plug-In . SVG Version: 6.00 Build 0)  -->
<!DOCTYPE svg PUBLIC "-//W3C//DTD SVG 1.1//EN" "http://www.w3.org/Graphics/SVG/1.1/DTD/svg11.dtd">
<svg version="1.1" id="Courses" fill="currentColor" xmlns="http://www.w3.org/2000/svg" xmlns:xlink="http://www.w3.org/1999/xlink" x="0px" y="0px"
	 width="32px" height="32px" viewBox="0 0 172.122 172.122" style="enable-background:new 0 0 172.122 172.122;"
	 xml:space="preserve">
<g>
	<path d="M136.979,20.393h-3.556c-1.395-5.368-6.224-9.354-12.032-9.354h-16.928C100.889,4.5,94.025,0,86.062,0
		C78.1,0,71.234,4.506,67.66,11.039H50.732c-5.812,0-10.638,3.985-12.035,9.354h-3.553c-6.884,0-12.471,5.59-12.471,12.47v126.789
		c0,6.887,5.587,12.471,12.471,12.471h101.835c6.881,0,12.471-5.584,12.471-12.471V32.863
		C149.449,25.967,143.871,20.393,136.979,20.393z M86.062,12.074c4.95,0,8.963,4.016,8.963,8.97c0,4.95-4.013,8.963-8.963,8.963
		c-4.951,0-8.967-4.019-8.967-8.963S81.11,12.074,86.062,12.074z M49.821,131.587c-3.449,0-6.235-2.789-6.235-6.236
		c0-3.446,2.786-6.234,6.235-6.234c3.456,0,6.235,2.788,6.235,6.234C56.057,128.798,53.265,131.587,49.821,131.587z M49.821,100.41
		c-3.449,0-6.235-2.789-6.235-6.235c0-3.447,2.786-6.235,6.235-6.235c3.456,0,6.235,2.788,6.235,6.235
		C56.057,97.621,53.265,100.41,49.821,100.41z M49.821,69.233c-3.449,0-6.235-2.792-6.235-6.235c0-3.446,2.786-6.235,6.235-6.235
		c3.456,0,6.235,2.789,6.235,6.235C56.057,66.441,53.265,69.233,49.821,69.233z M125.074,131.587H70.317
		c-3.456,0-6.235-2.789-6.235-6.236c0-3.446,2.78-6.234,6.235-6.234h54.757c3.453,0,6.235,2.788,6.235,6.234
		C131.31,128.798,128.527,131.587,125.074,131.587z M125.074,100.41H70.317c-3.456,0-6.235-2.789-6.235-6.235
		c0-3.447,2.78-6.235,6.235-6.235h54.757c3.453,0,6.235,2.788,6.235,6.235C131.31,97.621,128.527,100.41,125.074,100.41z
		 M125.074,69.233H70.317c-3.456,0-6.235-2.792-6.235-6.235c0-3.446,2.78-6.235,6.235-6.235h54.757c3.453,0,6.235,2.789,6.235,6.235
		C131.31,66.441,128.527,69.233,125.074,69.233z"/>
</g>
<g>
</g>
<g>
</g>
<g>
</g>
<g>
</g>
<g>
</g>
<g>
</g>
<g>
</g>
<g>
</g>
<g>
</g>
<g>
</g>
<g>
</g>
<g>
</g>
<g>
</g>
<g>
</g>
<g>
</g>
</svg>
