<svg id="Lessons" fill="currentColor" enable-background="new 0 0 64 64" width="32px" height="32px" viewBox="0 0 64 64" xmlns="http://www.w3.org/2000/svg"><path d="m59 24.828v6.172h-2v-4h-2v4h-6v-7.382l2.553 1.276c.14.071.294.106.447.106.13 0 .26-.025.383-.076.268-.111.474-.333.566-.607l1.707-5.12c.988.259 1.896.769 2.638 1.511 1.1 1.1 1.706 2.563 1.706 4.12zm-14.5-5.828 1.981 2.641-1.897.949-1.196-3.59zm7 0h1.113l-1.196 3.59-1.897-.949zm-3.5-16c2.94 0 5.388 2.127 5.898 4.922-1.894-.24-3.647-1.086-5.018-2.457l-.171-.172c-.375-.377-1.041-.377-1.416 0l-.17.171c-1.372 1.372-3.125 2.218-5.019 2.457.508-2.794 2.956-4.921 5.896-4.921zm-5.925 6.947c2.198-.218 4.254-1.107 5.925-2.567 1.671 1.459 3.726 2.349 5.925 2.567-.455 2.86-2.939 5.053-5.925 5.053s-5.47-2.193-5.925-5.053zm5.925 7.053c.692 0 1.359-.097 2-.263v.93l-2 2.666-2-2.666v-.93c.641.166 1.308.263 2 .263zm-11 7.828c0-1.557.606-3.021 1.707-4.121.742-.741 1.65-1.252 2.638-1.511l1.707 5.12c.092.274.298.496.566.607.122.052.252.077.382.077.153 0 .307-.035.447-.105l2.553-1.277v7.382h-6v-4h-2v4h-2zm-12 4.172h6v2h-6zm-5 19c0-1.654 1.346-3 3-3s3 1.346 3 3-1.346 3-3 3-3-1.346-3-3zm-14 0c0-1.654 1.346-3 3-3s3 1.346 3 3-1.346 3-3 3-3-1.346-3-3zm-3 11c0-3.309 2.691-6 6-6s6 2.691 6 6v2h-12zm14 0c0-3.309 2.691-6 6-6s6 2.691 6 6v2h-12zm26 2h-12v-2c0-3.309 2.691-6 6-6s6 2.691 6 6zm-9-13c0-1.654 1.346-3 3-3s3 1.346 3 3-1.346 3-3 3-3-1.346-3-3zm25 11h-14c0-3.232-1.93-6.016-4.695-7.277 1.031-.917 1.695-2.238 1.695-3.723 0-2.757-2.243-5-5-5s-5 2.243-5 5c0 1.485.664 2.806 1.695 3.723-1.566.714-2.865 1.914-3.695 3.413-.83-1.498-2.129-2.698-3.695-3.413 1.031-.917 1.695-2.238 1.695-3.723 0-2.045-1.237-3.802-3-4.576v-6.424h34zm2-26v2h-38v-2z"/><path d="m22 8v-2c0-1.105-.895-2-2-2h-16c-1.105 0-2 .895-2 2v12c0 1.105.895 2 2 2h16c1.105 0 2-.895 2-2v-2l4-4zm-3 9h-14v-2h14zm-12-4v-2h10v2zm12-4h-14v-2h14z"/></svg>