<svg width="40" height="40" viewBox="0 0 40 40" fill="none" xmlns="http://www.w3.org/2000/svg">
<path fill-rule="evenodd" clip-rule="evenodd" d="M27.2727 14.5457C27.2727 16.4745 26.5065 18.3244 25.1426 19.6883C23.7787 21.0522 21.9289 21.8184 20 21.8184C18.0712 21.8184 16.2213 21.0522 14.8574 19.6883C13.4935 18.3244 12.7273 16.4745 12.7273 14.5457C12.7273 12.6168 13.4935 10.767 14.8574 9.40308C16.2213 8.03918 18.0712 7.27295 20 7.27295C21.9289 7.27295 23.7787 8.03918 25.1426 9.40308C26.5065 10.767 27.2727 12.6168 27.2727 14.5457ZM23.6364 14.5457C23.6364 15.5101 23.2532 16.435 22.5713 17.117C21.8894 17.7989 20.9644 18.182 20 18.182C19.0356 18.182 18.1107 17.7989 17.4287 17.117C16.7468 16.435 16.3637 15.5101 16.3637 14.5457C16.3637 13.5813 16.7468 12.6563 17.4287 11.9744C18.1107 11.2924 19.0356 10.9093 20 10.9093C20.9644 10.9093 21.8894 11.2924 22.5713 11.9744C23.2532 12.6563 23.6364 13.5813 23.6364 14.5457Z" fill="white"/>
<path fill-rule="evenodd" clip-rule="evenodd" d="M20 0C8.95455 0 0 8.95455 0 20C0 31.0455 8.95455 40 20 40C31.0455 40 40 31.0455 40 20C40 8.95455 31.0455 0 20 0ZM3.63636 20C3.63636 23.8 4.93273 27.2982 7.10545 30.0764C8.63133 28.0725 10.5998 26.4486 12.8572 25.3315C15.1145 24.2143 17.5995 23.6342 20.1182 23.6364C22.6042 23.634 25.058 24.1991 27.2926 25.2887C29.5272 26.3783 31.4836 27.9635 33.0127 29.9236C34.5881 27.8575 35.6488 25.4458 36.1071 22.8883C36.5654 20.3308 36.4081 17.701 35.6482 15.2163C34.8883 12.7317 33.5477 10.4637 31.7372 8.60007C29.9268 6.73641 27.6986 5.33065 25.2371 4.49911C22.7755 3.66756 20.1513 3.43413 17.5816 3.81813C15.0119 4.20214 12.5705 5.19253 10.4596 6.70737C8.34863 8.22221 6.62875 10.2179 5.44223 12.5294C4.25572 14.8409 3.63669 17.4018 3.63636 20ZM20 36.3636C16.2435 36.3693 12.6005 35.077 9.68727 32.7055C10.8599 31.0268 12.4206 29.6562 14.2367 28.7103C16.0528 27.7645 18.0705 27.2713 20.1182 27.2727C22.1403 27.2711 24.1336 27.752 25.9326 28.6753C27.7316 29.5987 29.2843 30.9379 30.4618 32.5818C27.526 35.0304 23.8229 36.369 20 36.3636Z" fill="white"/>
</svg>
