<svg id="Schedule" fill="currentColor" enable-background="new 0 0 512 512" height="32px" viewBox="0 0 512 512" width="32px" xmlns="http://www.w3.org/2000/svg"><path d="m151 61h211v60h-211z"/><path d="m497 61h-105v60h45c8.401 0 15 6.599 15 15s-6.599 15-15 15h-361c-8.401 0-15-6.599-15-15s6.599-15 15-15h45v-60h-106c-8.401 0-15 6.599-15 15v421c0 8.401 6.599 15 15 15h272c41.4 0 75-33.6 75-75v-60c0-8.401 6.599-15 15-15h60c41.4 0 75-33.6 75-75v-211c0-8.401-6.599-15-15-15zm-331 361h-60c-8.401 0-15-6.599-15-15s6.599-15 15-15h60c8.401 0 15 6.599 15 15s-6.599 15-15 15zm0-60h-60c-8.401 0-15-6.599-15-15s6.599-15 15-15h60c8.401 0 15 6.599 15 15s-6.599 15-15 15zm0-60h-60c-8.401 0-15-6.599-15-15s6.599-15 15-15h60c8.401 0 15 6.599 15 15s-6.599 15-15 15zm0-60h-60c-8.401 0-15-6.599-15-15s6.599-15 15-15h60c8.401 0 15 6.599 15 15s-6.599 15-15 15zm121 120h-61c-8.401 0-15-6.599-15-15s6.599-15 15-15h61c8.401 0 15 6.599 15 15s-6.599 15-15 15zm0-60h-61c-8.401 0-15-6.599-15-15s6.599-15 15-15h61c8.401 0 15 6.599 15 15s-6.599 15-15 15zm0-60h-61c-8.401 0-15-6.599-15-15s6.599-15 15-15h61c8.401 0 15 6.599 15 15s-6.599 15-15 15zm120 60h-60c-8.401 0-15-6.599-15-15s6.599-15 15-15h60c8.401 0 15 6.599 15 15s-6.599 15-15 15zm0-60h-60c-8.401 0-15-6.599-15-15s6.599-15 15-15h60c8.401 0 15 6.599 15 15s-6.599 15-15 15z"/><path d="m406.745 512h90.255c8.291 0 15-6.709 15-15v-90.255c-23.862 44.658-60.597 81.393-105.255 105.255z"/><path d="m494.103 374.889c-16.466 10.735-36.028 17.111-57.103 17.111h-45v45c0 21.075-6.376 40.637-17.111 57.103 53.498-22.787 96.427-65.716 119.214-119.214z"/><path d="m151 15c0-8.401-6.599-15-15-15s-15 6.599-15 15v46h30z"/><path d="m392 15c0-8.401-6.599-15-15-15s-15 6.599-15 15v46h30z"/></svg>