<svg id="Secretaries" fill="currentColor" height="32px" viewBox="0 -24 512 512" width="32px" xmlns="http://www.w3.org/2000/svg"><path d="m0 303.355469h512v160.117187h-512zm0 0"/><path d="m512 273.355469v-60.046875h-90.5v-30.046875h60.476562v-153.238281h-211v153.238281h60.476563v30.046875h-90.527344c-1.140625-38.859375-23.699219-72.4375-56.253906-89.3125 14.414063-13.039063 23.488281-31.878906 23.488281-52.800782 0-39.257812-31.9375-71.195312-71.195312-71.195312-39.253906 0-71.195313 31.9375-71.195313 71.195312 0 20.921876 9.074219 39.765626 23.492188 52.800782-32.554688 16.875-55.113281 50.453125-56.253907 89.3125h-33.007812v60.050781h512zm0 0"/></svg>