<svg id="Calendar" width="20" height="23" viewBox="0 0 20 23" xmlns="http://www.w3.org/2000/svg">
<path d="M4.4444 10H6.66662V12.2222H4.4444V10ZM4.4444 14.4444H6.66662V16.6667H4.4444V14.4444ZM8.88884 10H11.1111V12.2222H8.88884V10ZM8.88884 14.4444H11.1111V16.6667H8.88884V14.4444ZM13.3333 10H15.5555V12.2222H13.3333V10ZM13.3333 14.4444H15.5555V16.6667H13.3333V14.4444Z" />
<path d="M2.22222 22.2222H17.7778C19.0033 22.2222 20 21.2256 20 20V4.44444C20 3.21889 19.0033 2.22222 17.7778 2.22222H15.5556V0H13.3333V2.22222H6.66667V0H4.44444V2.22222H2.22222C0.996667 2.22222 0 3.21889 0 4.44444V20C0 21.2256 0.996667 22.2222 2.22222 22.2222ZM17.7778 6.66667L17.7789 20H2.22222V6.66667H17.7778Z" />
</svg>
