<svg id="CheckTrue" width="19" height="19" viewBox="0 0 19 19" fill="none" xmlns="http://www.w3.org/2000/svg">
<path d="M16.625 19H2.375C1.7194 19 1.15967 18.7678 0.695801 18.3035C0.231934 17.8392 0 17.2789 0 16.6227V2.35875C0 1.70251 0.231934 1.14532 0.695801 0.687195C1.15967 0.229065 1.7194 0 2.375 0H16.625C17.2806 0 17.8403 0.229065 18.3042 0.687195C18.7681 1.14532 19 1.70251 19 2.35875V16.6227C19 17.2789 18.7681 17.8392 18.3042 18.3035C17.8403 18.7678 17.2806 19 16.625 19V19ZM16.625 3.54741C16.625 3.22548 16.5106 2.94689 16.2817 2.71163C16.0529 2.47638 15.7715 2.35875 15.4375 2.35875H3.5625C3.22852 2.35875 2.9471 2.47638 2.71826 2.71163C2.48942 2.94689 2.375 3.22548 2.375 3.54741V15.434C2.375 15.7683 2.48942 16.05 2.71826 16.2791C2.9471 16.5081 3.22852 16.6227 3.5625 16.6227H15.4375C15.7715 16.6227 16.0529 16.5081 16.2817 16.2791C16.5106 16.05 16.625 15.7683 16.625 15.434V3.54741ZM11.2441 9.49071L13.8789 12.1281C14.1263 12.3757 14.25 12.6698 14.25 13.0103C14.25 13.3508 14.1294 13.6386 13.8882 13.8739C13.647 14.1092 13.3563 14.2268 13.0161 14.2268C12.6759 14.2268 12.3822 14.1092 12.1348 13.8739L9.5 11.2366L6.86523 13.8925C6.61784 14.1277 6.32715 14.2454 5.99316 14.2454C5.65918 14.2454 5.37158 14.1246 5.13037 13.8832C4.88916 13.6417 4.76855 13.3508 4.76855 13.0103C4.76855 12.6698 4.88607 12.3819 5.12109 12.1466L7.77441 9.49071L5.10254 6.8348C4.86751 6.58716 4.75 6.29309 4.75 5.95259C4.75 5.61209 4.86751 5.32421 5.10254 5.08895C5.33757 4.8537 5.62516 4.73607 5.96533 4.73607C6.3055 4.73607 6.59928 4.8537 6.84668 5.08895L9.5 7.76344L12.1719 5.08895C12.4069 4.8537 12.6945 4.73607 13.0347 4.73607C13.3748 4.73607 13.6655 4.85679 13.9067 5.09824C14.1479 5.33969 14.2686 5.63066 14.2686 5.97116C14.2686 6.31167 14.1449 6.59954 13.8975 6.8348L11.2441 9.49071Z" fill="#FF0202"/>
</svg>
