<svg id="CheckboxTrue" width="15" height="15" viewBox="0 0 15 15" xmlns="http://www.w3.org/2000/svg">
<path d="M13.125 14.9854H1.875C1.35742 14.9854 0.915527 14.8022 0.549316 14.436C0.183105 14.0698 0 13.6279 0 13.1104V1.86035C0 1.34277 0.183105 0.90332 0.549316 0.541992C0.915527 0.180664 1.35742 0 1.875 0H13.125C13.3887 0 13.6475 0.0537109 13.9014 0.161133L12.1875 1.86035H2.8125C2.55859 1.86035 2.33887 1.95312 2.15332 2.13867C1.96777 2.32422 1.875 2.54395 1.875 2.79785V12.1729C1.875 12.4365 1.96533 12.6587 2.146 12.8394C2.32666 13.02 2.54883 13.1104 2.8125 13.1104H12.1875C12.4414 13.1104 12.6611 13.02 12.8467 12.8394C13.0322 12.6587 13.125 12.4365 13.125 12.1729V6.54785L15 4.67285V13.1104C15 13.6279 14.8169 14.0698 14.4507 14.436C14.0845 14.8022 13.6426 14.9854 13.125 14.9854ZM8.17383 10.0195C7.98828 10.2051 7.75879 10.293 7.48535 10.2832C7.20215 10.293 6.96777 10.2002 6.78223 10.0049L4.02832 7.26562C3.84277 7.07031 3.75 6.83838 3.75 6.56982C3.75 6.30127 3.84521 6.07422 4.03564 5.88867C4.22607 5.70312 4.45312 5.61035 4.7168 5.61035C4.98047 5.61035 5.20996 5.70312 5.40527 5.88867L7.51465 7.99805L14.6631 0.805664C14.8877 1.12793 15 1.47949 15 1.86035V2.85645C14.9219 3.15918 14.8242 3.36426 14.707 3.47168L8.17383 10.0195Z" />
</svg>
