<svg id="DropDownButton" width="33" height="25" viewBox="0 0 33 25" fill="none" xmlns="http://www.w3.org/2000/svg">
<path d="M15.1414 24.28C15.2927 24.502 15.4953 24.6836 15.7316 24.809C15.9679 24.9345 16.2308 25 16.4978 25C16.7647 25 17.0276 24.9345 17.2639 24.809C17.5002 24.6836 17.7028 24.502 17.8542 24.28L32.7053 2.61482C32.8772 2.36493 32.978 2.07224 32.9968 1.76856C33.0156 1.46487 32.9516 1.16179 32.8117 0.892262C32.6719 0.622732 32.4616 0.397053 32.2038 0.239747C31.9459 0.082441 31.6502 -0.000477207 31.3489 2.06595e-06H1.6466C1.34602 0.00125599 1.05146 0.0852406 0.794607 0.242924C0.537752 0.400607 0.328317 0.626022 0.188825 0.894929C0.0493326 1.16384 -0.0149389 1.46606 0.00292204 1.7691C0.020783 2.07214 0.120101 2.36453 0.290194 2.61482L15.1414 24.28Z" fill="white"/>
</svg>
