<svg id="DropDown" width="15" height="12" viewBox="0 0 15 12" fill="none" xmlns="http://www.w3.org/2000/svg">
<path d="M6.8819 10.9268C6.9507 11.0267 7.04277 11.1084 7.15016 11.1648C7.25756 11.2213 7.37707 11.2508 7.4984 11.2508C7.61972 11.2508 7.73923 11.2213 7.84663 11.1648C7.95402 11.1084 8.04609 11.0267 8.1149 10.9268L14.8649 1.17675C14.943 1.06429 14.9888 0.932574 14.9974 0.795905C15.0059 0.659235 14.9768 0.522843 14.9133 0.401546C14.8497 0.280249 14.7541 0.178686 14.6369 0.107894C14.5197 0.037101 14.3853 -0.000214758 14.2484 9.2974e-07H0.748396C0.611779 0.000565237 0.4779 0.0383609 0.361157 0.109323C0.244413 0.180285 0.149223 0.281729 0.0858227 0.402746C0.0224221 0.523762 -0.00678987 0.659772 0.0013281 0.796149C0.00944607 0.932526 0.0545869 1.06411 0.131896 1.17675L6.8819 10.9268Z" fill="#FFB800"/>
</svg>
