<svg id="Edit" width="35" height="33" viewBox="0 0 35 33" xmlns="http://www.w3.org/2000/svg">
<path d="M24.4635 5.3571L29.9444 11.1719C30.1753 11.4169 30.1753 11.8166 29.9444 12.0615L16.6736 26.1408L11.0347 26.8048C10.2812 26.8951 9.64323 26.2182 9.7283 25.4188L10.3542 19.4364L23.625 5.3571C23.8559 5.11213 24.2326 5.11213 24.4635 5.3571ZM34.3073 3.88084L31.342 0.734909C30.4184 -0.24497 28.9175 -0.24497 27.9878 0.734909L25.8368 3.017C25.6059 3.26197 25.6059 3.66165 25.8368 3.90662L31.3177 9.72143C31.5486 9.9664 31.9253 9.9664 32.1562 9.72143L34.3073 7.43934C35.2309 6.45302 35.2309 4.86071 34.3073 3.88084ZM23.3333 22.3116V28.8742H3.88889V8.24516H17.8524C18.0469 8.24516 18.2292 8.16136 18.3689 8.01954L20.7995 5.44091C21.2613 4.95097 20.9332 4.11936 20.283 4.11936H2.91667C1.30642 4.11936 0 5.50537 0 7.21371V29.9056C0 31.614 1.30642 33 2.91667 33H24.3056C25.9158 33 27.2222 31.614 27.2222 29.9056V19.733C27.2222 19.0432 26.4384 18.7015 25.9766 19.185L23.546 21.7636C23.4123 21.9119 23.3333 22.1053 23.3333 22.3116Z" />
</svg>

