<svg id="Search" width="32" height="32" viewBox="0 0 16 16" fill="none" xmlns="http://www.w3.org/2000/svg">
<path d="M6.84236 13.6847C8.36049 13.6844 9.83487 13.1762 11.0307 12.241L14.7906 16.0009L16 14.7915L12.2401 11.0316C13.1758 9.8356 13.6844 8.36088 13.6847 6.84236C13.6847 3.06965 10.6151 0 6.84236 0C3.06965 0 0 3.06965 0 6.84236C0 10.6151 3.06965 13.6847 6.84236 13.6847ZM6.84236 1.71059C9.67253 1.71059 11.9741 4.01219 11.9741 6.84236C11.9741 9.67253 9.67253 11.9741 6.84236 11.9741C4.01219 11.9741 1.71059 9.67253 1.71059 6.84236C1.71059 4.01219 4.01219 1.71059 6.84236 1.71059Z" fill="#FFB800"/>
<path d="M8.04997 5.6329C8.37413 5.95792 8.55288 6.38727 8.55288 6.84229H10.2635C10.2642 6.39277 10.1759 5.94756 10.0035 5.53239C9.83118 5.11723 9.57825 4.74034 9.25936 4.42352C7.96444 3.13031 5.71929 3.13031 4.42523 4.42352L5.63291 5.63462C6.28293 4.9863 7.40337 4.98801 8.04997 5.6329Z" fill="#FFB800"/>
</svg>
